HIERARCHY
ROOT ui
{
	 OFFSET 0 0 0
	 CHANNELS 3 XPosition YPosition Z Position
	 EndSite
	 {
	 OFFSET 0 -1 0
	 }
}
ROOT li
{
	 OFFSET 0 0 0
	 CHANNELS 3 XPosition YPosition Z Position
	 EndSite
	 {
	 OFFSET 0 -1 0
	 }
}
ROOT ul
{
	 OFFSET 0 0 0
	 CHANNELS 3 XPosition YPosition Z Position
	 EndSite
	 {
	 OFFSET 0 -1 0
	 }
}
ROOT ll
{
	 OFFSET 0 0 0
	 CHANNELS 3 XPosition YPosition Z Position
	 EndSite
	 {
	 OFFSET 0 -1 0
	 }
}
ROOT tt
{
	 OFFSET 0 0 0
	 CHANNELS 3 XPosition YPosition Z Position
	 EndSite
	 {
	 OFFSET 0 -1 0
	 }
}
ROOT tb
{
	 OFFSET 0 0 0
	 CHANNELS 3 XPosition YPosition Z Position
	 EndSite
	 {
	 OFFSET 0 -1 0
	 }
}
ROOT td
{
	 OFFSET 0 0 0
	 CHANNELS 3 XPosition YPosition Z Position
	 EndSite
	 {
	 OFFSET 0 -1 0
	 }
}
ROOT v
{
	 OFFSET 0 0 0
	 CHANNELS 3 XPosition YPosition Z Position
	 EndSite
	 {
	 OFFSET 0 -1 0
	 }
}
ROOT bn
{
	 OFFSET 0 0 0
	 CHANNELS 3 XPosition YPosition Z Position
	 EndSite
	 {
	 OFFSET 0 -1 0
	 }
}
MOTION
Frames: 24
Frame Time: 0.002
0.01439945125579834	4.6816399693489077E-4	0		0.5738483276367188	-2.6415888671875	0		-1.099255859375	0.20373393249511718	0		-0.2523281402587891	-3.339423095703125	0		2.054130859375	-1.5379923095703125	0		3.410378173828125	-0.49326205444335935	0		4.82185498046875	-0.07257881927490234	0		5.94075537109375	0.4721900634765625	0		-0.3060260009765625	5.94188916015625	0		
0.014652984619140625	8.092200011014938E-5	0		0.623917236328125	-2.65084765625	0		-1.0750546875	0.19994863891601564	0		-0.24438421630859375	-3.3549423828125	0		2.0166959228515626	-1.5187554931640626	0		3.383939697265625	-0.47523516845703123	0		4.8241416015625	-0.07107164001464844	0		5.9342841796875	0.43877191162109375	0		-0.3218382873535156	5.9327841796875	0		
-0.014121445655822754	-0.0028244359493255614	0		0.5692090454101563	-2.6483095703125	0		-1.0798482666015625	0.19563825988769531	0		-0.25901840209960936	-3.348089111328125	0		2.009112060546875	-1.5100440673828126	0		3.345110595703125	-0.48099786376953124	0		4.80131396484375	-0.07712420654296875	0		5.929646484375	0.46066888427734376	0		-0.1901155242919922	5.95411083984375	0		
0.006230659961700439	4.0473699569702146E-4	0		0.6183411865234375	-2.65758203125	0		-1.079561767578125	0.19521722412109374	0		-0.26181134033203124	-3.3524599609375	0		1.97450244140625	-1.503869873046875	0		3.354324462890625	-0.48558734130859377	0		4.7895322265625	-0.08135479736328124	0		5.9298505859375	0.4599035949707031	0		-0.190794189453125	5.9547041015625	0		
-0.02152501106262207	-0.0025483479499816895	0		0.5697879028320313	-2.64917138671875	0		-1.1172646484375	0.19543299865722658	0		-0.24764848327636718	-3.3611396484375	0		1.981971435546875	-1.4944237060546874	0		3.313572265625	-0.4883043212890625	0		4.77394775390625	-0.07450082397460937	0		5.9314482421875	0.45393191528320315	0		-0.17436894226074218	5.96298779296875	0		
0.01088396453857422	0.003449568033218384	0		0.5731744384765625	-2.645666259765625	0		-1.0757552490234374	0.2072640380859375	0		-0.24427244567871093	-3.35864208984375	0		1.91661669921875	-1.4747144775390626	0		3.335212158203125	-0.4690865173339844	0		4.77013818359375	-0.08083313751220703	0		5.93878857421875	0.4529567260742188	0		-0.29328790283203127	5.9545966796875	0		
-0.014822801589965821	0.003444988965988159	0		0.5636605224609375	-2.63693994140625	0		-1.084605712890625	0.19895072937011718	0		-0.21298904418945314	-3.362634521484375	0		1.91692822265625	-1.4751395263671876	0		3.299306884765625	-0.48086669921875	0		4.7507255859375	-0.0638724365234375	0		5.93047412109375	0.4578752136230469	0		-0.3092409362792969	5.94541650390625	0		
0.007387959957122802	-0.0013908250331878661	0		0.6118167114257812	-2.6482119140625	0		-1.0142680053710937	0.20126426696777344	0		-0.24358233642578125	-3.35956103515625	0		1.9004676513671874	-1.462266357421875	0		3.303702392578125	-0.4753272094726563	0		4.7389423828125	-0.06802642059326172	0		5.92583154296875	0.47825820922851564	0		-0.19090449523925782	5.953916015625	0		
-0.017316375732421875	-4.1655901074409484E-4	0		0.5592332153320313	-2.643740966796875	0		-1.024962158203125	0.20297210693359374	0		-0.21228138732910157	-3.363556884765625	0		1.893744873046875	-1.4645552978515626	0		3.26697705078125	-0.47606494140625	0		4.72611767578125	-0.07414157867431641	0		5.92374072265625	0.4570552062988281	0		-0.20691152954101563	5.94573193359375	0		
0.007927918910980224	-0.00230029296875	0		0.5714518432617187	-2.6513837890625	0		-1.0897103271484374	0.20260739135742187	0		-0.22796922302246095	-3.366740966796875	0		1.874226806640625	-1.454612060546875	0		3.25125830078125	-0.4761497497558594	0		4.70640478515625	-0.07311601257324218	0		5.92164306640625	0.43589886474609374	0		-0.30885293579101564	5.94402734375	0		
-0.004763050079345703	4.7531500458717344E-4	0		0.57689453125	-2.6458994140625	0		-1.0194029541015626	0.2049229278564453	0		-0.19159405517578126	-3.366813720703125	0		1.8797685546875	-1.4410872802734376	0		3.26569873046875	-0.4667348327636719	0		4.70976513671875	-0.06746511840820313	0		5.924111328125	0.45612353515625	0		-0.32671633911132814	5.94787841796875	0		
0.015548587799072266	0.0036938860416412356	0		0.5673890991210937	-2.637147216796875	0		-1.0191641235351563	0.2044490966796875	0		-0.23394940185546875	-3.350524169921875	0		1.8642901611328124	-1.4281871337890626	0		3.241033203125	-0.46263058471679686	0		4.69718701171875	-0.0575166244506836	0		5.92657373046875	0.47639669799804685	0		-0.29552938842773435	5.955896484375	0		
-0.009194673538208008	0.00469595193862915	0		0.5646585693359375	-2.641499267578125	0		-1.02805419921875	0.19713909912109376	0		-0.1717645721435547	-3.36201708984375	0		1.8696488037109376	-1.4246273193359376	0		3.22103369140625	-0.4775877685546875	0		4.6753603515625	-0.06138529968261719	0		5.9278994140625	0.43794403076171873	0		-0.178333984375	5.9654580078125	0		
0.008891009330749511	-0.004021059989929199	0		0.5629609375	-2.64385205078125	0		-1.042886474609375	0.1939411163330078	0		-0.22242474365234374	-3.3635654296875	0		1.8411766357421875	-1.410467041015625	0		3.193385009765625	-0.47138641357421873	0		4.66072607421875	-0.05334464263916015	0		5.91263916015625	0.47637255859375	0		-0.17836036682128906	5.96503955078125	0		
-0.01282563018798828	-4.114300012588501E-5	0		0.565328125	-2.64225439453125	0		-1.0426834716796876	0.19349917602539063	0		-0.2179737548828125	-3.359038330078125	0		1.8055606689453125	-1.4041651611328125	0		3.203566162109375	-0.47480331420898436	0		4.655822265625	-0.06043844985961914	0		5.922482421875	0.43423895263671874	0		-0.2965924987792969	5.9556455078125	0		
-0.01262777614593506	-4.1685301065444945E-4	0		0.5168335571289062	-2.631772216796875	0		-1.0424952392578124	0.19307241821289062	0		-0.25831524658203125	-3.3417314453125	0		1.768189697265625	-1.3828094482421875	0		3.16220068359375	-0.4503108825683594	0		4.62939990234375	-0.038128086090087894	0		5.92490869140625	0.4547715148925781	0		-0.29668988037109373	5.95525537109375	0		
0.016602666854858398	0.0017380130290985108	0		0.5670145263671875	-2.640942626953125	0		-0.9783137817382812	0.1925814208984375	0		-0.21419723510742186	-3.3568408203125	0		1.761566162109375	-1.3759522705078124	0		3.178203125	-0.46276593017578127	0		4.62162109375	-0.036101737976074216	0		5.92436328125	0.45992581176757813	0		-0.17961856079101562	5.96590673828125	0		
-0.017187849044799804	0.003980933904647827	0		0.5574869995117188	-2.632073974609375	0		-1.0653265380859376	0.1826631317138672	0		-0.22463389587402344	-3.344999755859375	0		1.7549501953125	-1.3680670166015625	0		3.18558447265625	-0.45203738403320315	0		4.60081396484375	-0.034818981170654295	0		5.9274462890625	0.4753861999511719	0		-0.1797826385498047	5.96556591796875	0		
0.01388338565826416	-0.001845039963722229	0		0.556767822265625	-2.63432958984375	0		-1.0111514892578124	0.18338853454589843	0		-0.2222444305419922	-3.34335205078125	0		1.7342940673828124	-1.3619176025390625	0		3.1469443359375	-0.4415023193359375	0		4.598126953125	-0.02580502700805664	0		5.9245986328125	0.4600140380859375	0		-0.1799731140136719	5.96525	0		
-0.007896512985229491	0.002244626045227051	0		0.516064697265625	-2.634888671875	0		-1.0191452026367187	0.17518426513671875	0		-0.20394680786132813	-3.346944580078125	0		1.7245938720703125	-1.357925537109375	0		3.0971611328125	-0.4387562866210937	0		4.56140087890625	-0.018190195083618164	0		5.91340283203125	0.47618252563476565	0		-0.3125467834472656	5.944171875	0		
0.01722470474243164	5.768349766731262E-4	0		0.5743712768554687	-2.63507568359375	0		-1.0190140991210936	0.1748729705810547	0		-0.19544094848632812	-3.33734228515625	0		1.71206787109375	-1.3428592529296874	0		3.128357666015625	-0.4373400573730469	0		4.56464306640625	-0.01222087860107422	0		5.93261572265625	0.45482562255859377	0		-0.33168902587890625	5.94821875	0		
-0.0076218490600585935	0.0017709929943084716	0		0.5368270874023438	-2.624635009765625	0		-1.03798779296875	0.1689090576171875	0		-0.20389910888671875	-3.324427734375	0		1.7203934326171875	-1.336116943359375	0		3.08182177734375	-0.4186045532226563	0		4.54914501953125	0.010081467628479003	0		5.927861328125	0.47599365234375	0		-0.29878475952148437	5.9544287109375	0		
0.017482723236083984	1.6433799266815186E-4	0		0.5609912719726563	-2.63119482421875	0		-0.9730136108398437	0.15958529663085938	0		-0.20256141662597657	-3.32264794921875	0		1.6807117919921875	-1.328554931640625	0		3.081968994140625	-0.4186300964355469	0		4.5303046875	0.012449699401855469	0		5.917859375	0.46105438232421875	0		-0.3141295776367187	5.9454697265625	0		
-0.016365535736083986	0.0025635690689086916	0		0.5254410400390624	-2.618736572265625	0		-0.9860873413085938	0.14858970642089844	0		-0.21003102111816407	-3.307690673828125	0		1.7288863525390625	-1.329425048828125	0		3.049125244140625	-0.4170926513671875	0		4.51555224609375	0.02076214790344238	0		5.9179404296875	0.46129397583007814	0		-0.19614988708496095	5.954341796875	0		
